<svg viewBox="0 0 100 100" xmlns="http://www.w3.org/2000/svg">
<rect x="0" y="0" width="100" height="100" fill="#0E1218"/><polygon points="50,4 93,27 93,73 50,96 7,73 7,27" fill="none" stroke="#FFFFFF" stroke-width="5"/>
<path d="M786 915Q877 915 924.0 955.0Q971 995 971 1073Q971 1150 924.0 1190.5Q877 1231 786 1231H573V915ZM799 262Q915 262 973.5 311.0Q1032 360 1032 459Q1032 556 974.0 604.5Q916 653 799 653H573V262ZM1157 799Q1281 763 1349.0 666.0Q1417 569 1417 428Q1417 212 1271.0 106.0Q1125 0 827 0H188V1493H766Q1077 1493 1216.5 1399.0Q1356 1305 1356 1098Q1356 989 1305.0 912.5Q1254 836 1157 799Z" transform="translate(23.13,75.00) scale(0.03349,-0.03349)" fill="#FFFFFF"/>
</svg>